<?xml version="1.0" encoding="utf-8"?>
<!-- Generator: Adobe Illustrator 26.2.1, SVG Export Plug-In . SVG Version: 6.00 Build 0)  -->
<svg version="1.1" id="Layer_1" xmlns="http://www.w3.org/2000/svg" xmlns:xlink="http://www.w3.org/1999/xlink" x="0px" y="0px"
	 viewBox="0 0 208 208" style="enable-background:new 0 0 208 208;" xml:space="preserve">
<style type="text/css">
.outerRing {
			transform-origin: 50% 50%;
            opacity: 1;
            transform: scale(0.9, 0.9);
			fill: #5AA800;
        }
		.ring1 {
            animation: animRing 4s ease-out infinite;
        }
		
		.ring2 {
            animation: animRing 4s ease-out infinite;
			animation-delay:3s;
        }

	        @keyframes animRing {
            0% {
          		transform: scale(0.9, 0.9);
                opacity: 1;
            }
			80% {
          	
            opacity: 0;
            }
			100% {
          	transform: scale(1.2, 1.2);
             opacity: 0; 
            }
		}
</style>
    <defs>
                <linearGradient id="gradient">
                               <stop offset="0%" stop-color="#2c5e00">
                <animate attributeName="stop-color" values="#2c5e00; #0c0c0c; #2c5e00" dur="4s" repeatCount="indefinite"></animate>
            </stop>

            <stop offset="100%" stop-color="#0c0c0c">
                <animate attributeName="stop-color" values="#0c0c0c; #2c5e00; #0c0c0c" dur="4s" repeatCount="indefinite"></animate>
            </stop>
                </linearGradient>
            </defs>

<circle id="outer_x5F_ring" class="outerRing ring1" cx="104" cy="104" r="86"/>
<circle id="outer_x5F_ring" class="outerRing ring2" cx="104" cy="104" r="86" />
<path id="bg" fill="url(#gradient)" d="M182.2,104.3c0,43.3-35.1,78.4-78.4,78.4s-78.4-35.1-78.4-78.4s35.1-78.4,78.4-78.4
	S182.2,61,182.2,104.3L182.2,104.3"/>


<g id="illustration">
	<g>
		<defs>
			<path id="SVGID_1_" d="M25.1,104c0,43.7,35.4,79.1,79.1,79.1s79.1-35.4,79.1-79.1s-35.4-79.1-79.1-79.1
				C60.6,24.8,25.1,60.3,25.1,104"/>
		</defs>
		<clipPath id="SVGID_00000091000024427848268790000000789161633847542156_">
			<use xlink:href="#SVGID_1_"  style="overflow:visible;"/>
		</clipPath>
		
			<path id="Path_444_00000149359036999582404930000016695261614197596067_" style="clip-path:url(#SVGID_00000091000024427848268790000000789161633847542156_);fill:#54B81A;" d="
			M85.8,50.2v-2.5c0-4.6,1.9-7.2,7.1-7.2c5.1,0,7.1,2.5,7.1,7v2.8c0,4.5-2,7.2-7.1,7.2C87.9,57.6,85.8,54.7,85.8,50.2 M95.6,50.3
			v-2.8c0-2.1-0.4-3.9-2.7-3.9s-2.6,1.8-2.6,3.9v2.8c0,2.1,0.4,4,2.7,4C95.2,54.4,95.6,52.4,95.6,50.3 M107.3,40.8h4.1l-10,31.6
			h-4.2L107.3,40.8z M108.6,65.2v-2.5c0-4.6,1.9-7.2,7-7.2s7.1,2.5,7.1,7.1v2.7c0,4.6-2,7.2-7.1,7.2
			C110.6,72.6,108.6,69.8,108.6,65.2 M118.3,65.4v-2.8c0-2.1-0.4-3.9-2.7-3.9s-2.7,1.8-2.7,3.9v2.8c0,2.1,0.4,4,2.7,4
			S118.3,67.5,118.3,65.4"/>
		
			<path id="Path_445_00000104707909825636957550000004585352038434588587_" style="clip-path:url(#SVGID_00000091000024427848268790000000789161633847542156_);fill:#0065A1;" d="
			M76.5,105.6c-2.7-1.6-13.9-1.7-15.2,5.2c-1.3,7,26.3,37.3,45.7,43.2c3.2,1,38.9-1.2,38.9-1.2s2.3-2.8-0.2-8.6l-37.7-9.1
			C108,135.1,85.9,111.2,76.5,105.6"/>
		
			<path id="Path_446_00000144313556020945824250000011821088287463920545_" style="clip-path:url(#SVGID_00000091000024427848268790000000789161633847542156_);fill:#1E4584;" d="
			M79,105.2c0,0-19.1-16.6-37,1.5c-4.8,4.8-8.7,12.7-10.7,28.1C42,160,65,177.9,92,182.2C89.8,149.5,98.4,125.5,79,105.2"/>
		
			<path id="Path_447_00000150101331455552170970000009691119594436817552_" style="clip-path:url(#SVGID_00000091000024427848268790000000789161633847542156_);fill:#EFC18F;" d="
			M56.6,80.4c0,0,3.8,10.1,0,16.6c-2.4,4.1,15.8,18,15.4,12.5c-0.5-7.2-3.9-11.6,0-19.7L56.6,80.4z"/>
		
			<path id="Path_448_00000174599936787732085510000006008039357654859708_" style="clip-path:url(#SVGID_00000091000024427848268790000000789161633847542156_);fill:#FFFFFF;" d="
			M71,108.7l5.5-1L73,117.8L63,109L71,108.7z"/>
		
			<path id="Path_449_00000109720610558813766550000011936489602652223674_" style="clip-path:url(#SVGID_00000091000024427848268790000000789161633847542156_);fill:#FFD9A8;" d="
			M72.6,63.2c5.8,6,11.1,31.6,4.4,36.8c-2.9,2.3-14.2-1-20.9-12.5c-2.8-4.7-6-13.4-1-21.7C57.4,62,63.5,63.1,72.6,63.2"/>
		
			<path id="Path_450_00000039827853714331388060000013141471883723477393_" style="clip-path:url(#SVGID_00000091000024427848268790000000789161633847542156_);fill:#5E775B;" d="
			M78.6,61.4c0,0,6.2,8.2-3.4,9.1c-9.6,1-16.6,1.2-15.7,3.5c2.5,6.8-4.6,6.8-1.5,14.9s-3,0.8-3.9-0.4c-0.9-1.2-8.4-9.2-2.4-20.5
			c4.6-8.6,12.9-9,20.4-6.1C74.4,62.9,76.2,61.7,78.6,61.4"/>
		
			<path id="Path_451_00000178922707089797602480000006659603432071625657_" style="clip-path:url(#SVGID_00000091000024427848268790000000789161633847542156_);fill:#FFFFFF;" d="
			M72.4,116.5l11.2,40.1l-3.8,18.1l-8-17L72.4,116.5z"/>
		
			<path id="Path_452_00000133494642800776178900000014694952376564203648_" style="clip-path:url(#SVGID_00000091000024427848268790000000789161633847542156_);fill:#FFD9A8;" d="
			M144.9,143.7c4.3,0.9,8.8,1.4,13.2,1.5c1.5,0.1,6.1-2,8.2-0.6s5.9,2.3,0,6.7c-3.1,2.4-10.8,3.1-12.7,2.9c-2.2-0.3-6.2-0.5-8.2-1.9
			C142.7,150.4,144.9,143.7,144.9,143.7"/>
		
			<path id="Path_453_00000116230579815581758820000008919684977663397046_" style="clip-path:url(#SVGID_00000091000024427848268790000000789161633847542156_);fill:#0065A1;" d="
			M43.8,108.8c-4.7-1.5-10.8,5-16.4,13.7c2.4,9.8,6.6,19.1,12.5,27.3c5.2-8.9,11-20.1,11.2-26.1C51.2,120.6,50.5,111,43.8,108.8"/>
	</g>
	<g>
		<defs>
			<rect id="SVGID_00000054232254705943185940000007877901620953800124_" x="23.3" y="23" width="167.2" height="161"/>
		</defs>
		<clipPath id="SVGID_00000159470169920710807270000009055887100996745618_">
			<use xlink:href="#SVGID_00000054232254705943185940000007877901620953800124_"  style="overflow:visible;"/>
		</clipPath>
		
			<circle id="Ellipse_40_00000139975354109660160590000006401038483537140128_" style="clip-path:url(#SVGID_00000159470169920710807270000009055887100996745618_);fill:none;stroke:#6BB516;stroke-width:3;" cx="104.3" cy="104" r="79.1"/>
		
			<path id="Path_455_00000093864603771939563820000011700695916280180134_" style="clip-path:url(#SVGID_00000159470169920710807270000009055887100996745618_);fill:#D6981A;" d="
			M160.5,82.5c16.1,16.1,30.1,25.8,30.1,40.4s-10,26.3-33.9,26.3c-22.2,0-34-9.4-34-26.1c0-16.6,12.8-28.8,26.8-41
			c0,0-11.6-12.4-12.8-14.4s6.8-6.6,17.6-6.6s17.2,2.3,17.4,4.5C172,67.8,160.5,82.5,160.5,82.5"/>
		
			<path id="Path_456_00000065764807032513311250000000356728118483261598_" style="clip-path:url(#SVGID_00000159470169920710807270000009055887100996745618_);fill:#FFD9A8;" d="
			M147.1,83.5c-1-0.3-1.6-1.4-1.3-2.3c0.2-0.6,0.7-1.1,1.3-1.3c2-0.6,15-1,15,0s1.7,3.2,0,3.6C160.5,83.9,149.5,84.3,147.1,83.5"/>
		
			<path id="Path_457_00000004546104795091821190000014036188617862995862_" style="clip-path:url(#SVGID_00000159470169920710807270000009055887100996745618_);fill:#FFFFFF;" d="
			M154,136.2V132c-2.6-0.1-5.2-0.7-7.5-1.9l1.3-5.2c2.3,1.2,4.8,1.9,7.4,2c2.5,0,4.3-1,4.3-2.8c0-1.7-1.4-2.8-4.7-3.9
			c-4.7-1.6-8-3.8-8-8.1c0-3.9,2.8-7,7.5-7.9V100h4.3v3.9c2.2,0,4.4,0.5,6.4,1.5l-1.3,5c-2-1-4.2-1.5-6.4-1.5
			c-2.9,0-3.8,1.2-3.8,2.5c0,1.5,1.6,2.4,5.3,3.8c5.3,1.9,7.4,4.3,7.4,8.3c0,3.9-2.8,7.3-7.9,8.2v4.5L154,136.2L154,136.2z"/>
	</g>
</g>
</svg>
