<?xml version="1.0" encoding="utf-8"?>
<!-- Generator: Adobe Illustrator 26.2.1, SVG Export Plug-In . SVG Version: 6.00 Build 0)  -->
<svg version="1.1" id="Trader" xmlns="http://www.w3.org/2000/svg" xmlns:xlink="http://www.w3.org/1999/xlink" x="0px" y="0px"
	 viewBox="0 0 208 208" style="enable-background:new 0 0 208 208;" xml:space="preserve">
<style type="text/css">
	     .outerRing {
			transform-origin: 50% 50%;
            opacity: 1;
            transform: scale(0.9, 0.9);
			fill: #5AA800;
        }
		.ring1 {
            animation: animRing 4s ease-out infinite;
        }
		
		.ring2 {
            animation: animRing 4s ease-out infinite;
			animation-delay:3s;
        }

	        @keyframes animRing {
            0% {
          		transform: scale(0.9, 0.9);
                opacity: 1;
            }
			80% {
          	
            opacity: 0;
            }
			100% {
          	transform: scale(1.2, 1.2);
             opacity: 0; 
            }
		}
</style>
            <defs>
                <linearGradient id="gradient">
                <stop offset="0%" stop-color="#2c5e00">
                <animate attributeName="stop-color" values="#2c5e00; #0c0c0c; #2c5e00" dur="4s" repeatCount="indefinite"></animate>
            </stop>

            <stop offset="100%" stop-color="#0c0c0c">
                <animate attributeName="stop-color" values="#0c0c0c; #2c5e00; #0c0c0c" dur="4s" repeatCount="indefinite"></animate>
            </stop>
                </linearGradient>
            </defs>

<circle id="outer_x5F_ring" class="outerRing ring1" cx="104" cy="104" r="86"/>
<circle id="outer_x5F_ring" class="outerRing ring2" cx="104" cy="104" r="86" />
<path id="bg" fill="url(#gradient)" d="M182.2,104.3c0,43.3-35.1,78.4-78.4,78.4s-78.4-35.1-78.4-78.4s35.1-78.4,78.4-78.4
	S182.2,61,182.2,104.3L182.2,104.3"/>
<g id="illustration">
	<g>
		<defs>
			<path id="SVGID_1_" d="M25.6,104.3c0.1,43.1,35.2,77.9,78.3,77.8s77.9-35.2,77.8-78.3c-0.1-43-35-77.8-78-77.8
				C60.5,26,25.5,61.1,25.6,104.3"/>
		</defs>
		<clipPath id="SVGID_00000028316866584286516950000016119257309873252751_">
			<use xlink:href="#SVGID_1_"  style="overflow:visible;"/>
		</clipPath>
		
		<path id="Path_425_00000150098895449718765940000005050147592763374465_" style="clip-path:url(#SVGID_00000028316866584286516950000016119257309873252751_);fill:#0065A1;" d="
			M137.6,90.4c2.4-1.7,8.7-4.9,10.5,1.4c1.8,6.4-4.8,55.6-23.4,58.8c-7.6,1.3-23.6-42.3-23.6-42.3s0.6-2.4,3.6-7.5l21.4,26.7
			C126.1,127.5,129.4,96.4,137.6,90.4"/>
		
			<path id="Path_426_00000030465002822909222390000008572858481328063138_" style="clip-path:url(#SVGID_00000028316866584286516950000016119257309873252751_);fill:#1E4584;" d="
			M171,89.1c9.2,7.7,16.5,25.7,18.1,83.7c0.3,12.8-57.1,17.1-56.9,4.3c0.6-34-12.8-64.1,4.4-86.1C136.6,91,152.8,73.9,171,89.1"/>
		
			<path id="Path_427_00000079455412734500477120000013730196789013928886_" style="clip-path:url(#SVGID_00000028316866584286516950000016119257309873252751_);fill:#EFC18F;" d="
			M156.5,67.3c0,0-3.5,9.5,0,15.6c2.3,3.9-14.7,16.8-14.4,11.6c0.5-6.7,3.6-10.8,0-18.4L156.5,67.3z"/>
		
			<path id="Path_428_00000033369297827105652960000005513238613128319898_" style="clip-path:url(#SVGID_00000028316866584286516950000016119257309873252751_);fill:#FFFFFF;" d="
			M145.3,93.5L140,93l5.1,9.2l7.7-9.2L145.3,93.5z"/>
		
			<path id="Path_429_00000134208837010560847730000015742819200919236029_" style="clip-path:url(#SVGID_00000028316866584286516950000016119257309873252751_);fill:#FFD9A8;" d="
			M132.4,53.6c-3,7.2,0.9,31.3,8.5,33.6c3.3,1,12-5.7,14-17.9c0.8-5,0.7-13.7-6.4-19.3C145.2,47.5,140.2,50.5,132.4,53.6"/>
		
			<path id="Path_430_00000003822810424642482610000004892245030269678988_" style="clip-path:url(#SVGID_00000028316866584286516950000016119257309873252751_);fill:#5E775B;" d="
			M126.6,54c0,0-2.6,9.2,6,6.8c8.7-2.4,14.8-4.5,14.8-2.2c0.1,6.8,6.3,4.4,6.3,12.5s2.9-0.3,3.3-1.7c0.3-1.4,4.2-10.8-4.8-18.6
			c-6.8-5.9-14.3-3.5-19.8,1.5C130.7,53.9,128.7,53.5,126.6,54"/>
		
			<path id="Path_431_00000078751242600708756820000005694268848331298471_" style="clip-path:url(#SVGID_00000028316866584286516950000016119257309873252751_);fill:#EFC18F;" d="
			M139.4,176.5c0,0-16.6,5.4-11.3,6.9c5.3,1.5,9.8,2.4,15.6-3.9L139.4,176.5z"/>
		
			<path id="Path_432_00000005988704722149329780000001095792558578058139_" style="clip-path:url(#SVGID_00000028316866584286516950000016119257309873252751_);fill:#0065A1;" d="
			M161.6,104.3c0.3-4.7,2.4-10.8,8.9-10.3c11.3,0.9,13,50,10.9,57.5c-2.1,7.4-38.3,29-38.3,29s-4.5-0.2-4.5-4.6l26.3-36
			C165,139.9,161,114.5,161.6,104.3"/>
		
			<path id="Path_433_00000119819437882923509680000012086136797818766237_" style="clip-path:url(#SVGID_00000028316866584286516950000016119257309873252751_);fill:#FFFFFF;" d="
			M145.1,102.3l-6.9,38.3l5.1,17.3l6-16.3L145.1,102.3z"/>
		
			<path id="Path_434_00000170974190426507894120000003394723896123486341_" style="clip-path:url(#SVGID_00000028316866584286516950000016119257309873252751_);fill:#FFBF1A;" d="
			M112.1,90.4c0,11.2-9.1,20.2-20.3,20.2c-11.2,0-20.2-9.1-20.2-20.3c0-11.1,9.1-20.2,20.2-20.2C103,70.1,112.1,79.2,112.1,90.4
			L112.1,90.4"/>
		
			<path id="Path_435_00000057838125669890342250000000764466641048269497_" style="clip-path:url(#SVGID_00000028316866584286516950000016119257309873252751_);fill:#D8861A;" d="
			M99.1,109.3c4.7-1.8,8.6-5.4,10.8-9.9l-4.3-1c-0.4,1.1,0.4,3,0.4,3C104,102.7,100.1,106.3,99.1,109.3"/>
		
			<path id="Path_436_00000016774981109982989700000012127613456514096295_" style="clip-path:url(#SVGID_00000028316866584286516950000016119257309873252751_);fill:#FFD9A8;" d="
			M107.7,110.7c3.3-3.4,4.4-8.4,3.1-10.8c-1.2-2.4-5.8-3.6-5.2-1.6c0.5,1.3,1.3,2.5,2.4,3.4c0,0-9.3,4.8-8.6,9.1
			C100.2,115.3,105.4,113.1,107.7,110.7"/>
	</g>
	<g>
		<defs>
			<rect id="SVGID_00000145765607730772164650000018089573649298021510_" x="22.3" y="24" width="167.3" height="161"/>
		</defs>

		
			<circle id="Ellipse_39_00000052819153811419659970000013709387602726341259_" style="clip-path:url(#SVGID_00000134228257597248581300000016232742855073518508_);fill:none;stroke:#6BB516;stroke-width:3;" cx="103.8" cy="104.3" r="78.4"/>
		
			<path id="Path_438_00000152983265371395172910000016540365782020413857_" style="clip-path:url(#SVGID_00000134228257597248581300000016232742855073518508_);fill:#5997FF;" d="
			M43.1,122.8c11.5,0,20.8,9.3,20.8,20.8s-9.3,20.8-20.8,20.8s-20.8-9.3-20.8-20.8l0,0C22.3,132.1,31.6,122.8,43.1,122.8L43.1,122.8
			"/>
		
			<path id="Path_439_00000106105383690287091680000006710110638329809550_" style="clip-path:url(#SVGID_00000134228257597248581300000016232742855073518508_);fill:#54B81A;" d="
			M44.7,107.8h-3.3V94.3c0-4.7,3.8-8.5,8.5-8.5l0,0h16v3.3H50.8c-3.3,0-6,2.7-6,6L44.7,107.8z"/>
		
			<path id="Path_440_00000099635306397152987680000018143728872795381644_" style="clip-path:url(#SVGID_00000134228257597248581300000016232742855073518508_);fill:#54B81A;" d="
			M50,103.9l-6.9,11.5l-6.9-11.5H50z"/>
		
			<path id="Path_441_00000129171661069954201770000002113253922422993809_" style="clip-path:url(#SVGID_00000134228257597248581300000016232742855073518508_);fill:#54B81A;" d="
			M90.1,123.9h3.3v13.5c0,4.7-3.8,8.5-8.5,8.5h-16v-3.3H84c3.3,0,6-2.7,6-6L90.1,123.9z"/>
		
			<path id="Path_442_00000009555823090063599880000007267825329351895723_" style="clip-path:url(#SVGID_00000134228257597248581300000016232742855073518508_);fill:#54B81A;" d="
			M84.9,127.8l6.9-11.5l6.9,11.5H84.9z"/>
	</g>
</g>
</svg>
