<svg xmlns="http://www.w3.org/2000/svg" width="644.591" height="134.668" viewBox="0 0 644.591 134.668">
  <g id="fullLogo_leverFinance_onDarkMode" transform="translate(0)">
    <path id="Path_15" data-name="Path 15" d="M13.9,34.677H49.2v8.88H3.69V-28.368H13.9Zm67.707.222h35.3v8.658H71.4V-28.368H116.35v8.658H81.608V2.71h30.413l-1.11,8.436h-29.3ZM190.494-28.368h10.212v.666L174.178,43.557H161.746L135.33-27.7v-.666h10.655L168.3,33.789ZM233.005,34.9h35.3v8.658H222.794V-28.368h44.953v8.658H233.005V2.71h30.413l-1.11,8.436h-29.3Zm114.436,7.992v.666H335.675L314.919,15.475H304.264V43.557H294.052V-28.368h23.42A34.2,34.2,0,0,1,331.735-25.7a19.431,19.431,0,0,1,8.769,7.437,20.724,20.724,0,0,1,2.941,11.1A22.778,22.778,0,0,1,341.5,2.266a20.308,20.308,0,0,1-5.827,7.492,24.446,24.446,0,0,1-9.657,4.606ZM304.264,7.039h11.654q8.325,0,12.6-3.607t4.273-10.156q0-6.327-3.94-9.657t-11.6-3.33H304.264Z" transform="translate(188.772 90.997)" fill="#fff"/>
    <g id="logoIcon_onLightMode" transform="translate(0)">
      <path id="Path_1" data-name="Path 1" d="M77.883,0,0,134.575H60.159L136.028,0Z" transform="translate(0 0)" fill="#fff"/>
      <path id="Path_2" data-name="Path 2" d="M136.027,0,0,134.575H60.158Z" transform="translate(0.001 0)" fill="#b0b5bf"/>
      <g id="Group_516" data-name="Group 516" transform="translate(78.674 67.287)">
        <path id="Path_3" data-name="Path 3" d="M54.1,107.087h76.044L92.179,39.8Z" transform="translate(-54.1 -39.8)" fill="#5aa800"/>
        <path id="Path_4" data-name="Path 4" d="M95.406,107.087h29.959L87.4,39.8Z" transform="translate(-49.321 -39.8)" fill="#7fdf00"/>
      </g>
    </g>
    <path id="Path_390" data-name="Path 390" d="M54.2-63.241H19.347v24.277h30.4l-1.114,8.686H19.347V.236H9.1V-71.927H54.2Zm26.839,4.789A6.327,6.327,0,0,1,77.7-59.4,7.356,7.356,0,0,1,75.2-61.9a6.327,6.327,0,0,1-.947-3.341A6.524,6.524,0,0,1,75.2-68.7,7.356,7.356,0,0,1,77.7-71.2a6.327,6.327,0,0,1,3.341-.947A6.524,6.524,0,0,1,84.5-71.2,7.357,7.357,0,0,1,87-68.7a6.524,6.524,0,0,1,.947,3.452A6.327,6.327,0,0,1,87-61.9,7.356,7.356,0,0,1,84.5-59.4,6.524,6.524,0,0,1,81.043-58.452ZM76.366.236V-48.541l9.577-1.114V.236Z" transform="translate(556.644 134.432)" fill="#7fdf00"/>
  </g>
</svg>
