<svg xmlns="http://www.w3.org/2000/svg" width="29" height="29" viewBox="0 0 29 29">
  <g id="icon_liquidated" transform="translate(-1553.879 -1035.879)">
    <circle id="Ellipse_1126" data-name="Ellipse 1126" cx="14.5" cy="14.5" r="14.5" transform="translate(1553.879 1035.879)" fill="#4f4f63" opacity="0.3"/>
    <path id="Subtraction_6" data-name="Subtraction 6" d="M20788.559,3196.879a11.508,11.508,0,0,1-10.818-15.416l7.67,7.631.793.794,4.824-6.145,7.506,7.366a11.491,11.491,0,0,1-9.975,5.77Zm10.861-7.7h0l-7.787-7.639-.8-.783-4.812,6.13-7.375-7.339a11.5,11.5,0,0,1,9.912-5.662,11.5,11.5,0,0,1,11.5,11.5,11.543,11.543,0,0,1-.641,3.8Z" transform="translate(-19220.18 -2135)" fill="#4f4f63"/>
  </g>
</svg>
