<svg xmlns="http://www.w3.org/2000/svg" width="20.778" height="15.31" viewBox="0 0 20.778 15.31"><g transform="translate(-3 -5)"><path d="M3,7.187A2.187,2.187,0,0,1,5.187,5H20.5a2.187,2.187,0,0,1,2.187,2.187V9.374H18.31a3.281,3.281,0,1,0,0,6.562h4.374v2.187A2.187,2.187,0,0,1,20.5,20.31H5.187A2.187,2.187,0,0,1,3,18.123Z" transform="translate(0 0)" fill="#fff"/><path d="M15,12.187A2.187,2.187,0,0,1,17.187,10h4.374a1.094,1.094,0,0,1,1.094,1.094v2.187a1.094,1.094,0,0,1-1.094,1.094H17.187A2.187,2.187,0,0,1,15,12.187Zm3.281,0a1.094,1.094,0,1,1-1.094-1.094A1.094,1.094,0,0,1,18.281,12.187Z" transform="translate(1.123 0.468)" fill="#fff" fill-rule="evenodd"/></g></svg>